<mxfile host="app.diagrams.net" modified="2021-10-18T05:37:34.550Z" agent="5.0 (Windows NT 10.0; Win64; x64) AppleWebKit/537.36 (KHTML, like Gecko) Chrome/94.0.4606.81 Safari/537.36" etag="oikMCPw_p0kIdRxBy_rH" version="15.5.4" type="github">
  <diagram id="94kB9UrW29SXgIIDM3bP" name="Page-1">
    <mxGraphModel dx="1019" dy="453" grid="1" gridSize="10" guides="1" tooltips="1" connect="1" arrows="1" fold="1" page="1" pageScale="1" pageWidth="850" pageHeight="1100" math="0" shadow="0">
      <root>
        <mxCell id="0" />
        <mxCell id="1" parent="0" />
        <mxCell id="ZHkih56UFuQLgqINmOO1-1" value="&lt;font style=&quot;font-size: 14px&quot;&gt;&lt;b&gt;System User&lt;/b&gt;&lt;/font&gt;" style="rounded=0;whiteSpace=wrap;html=1;" vertex="1" parent="1">
          <mxGeometry x="123" y="240" width="120" height="60" as="geometry" />
        </mxCell>
        <mxCell id="ZHkih56UFuQLgqINmOO1-2" value="&lt;b&gt;&lt;font style=&quot;font-size: 14px&quot;&gt;SocialE-Phising Awareness&lt;br&gt;System&lt;/font&gt;&lt;/b&gt;" style="ellipse;whiteSpace=wrap;html=1;aspect=fixed;" vertex="1" parent="1">
          <mxGeometry x="357" y="197" width="132" height="132" as="geometry" />
        </mxCell>
        <mxCell id="ZHkih56UFuQLgqINmOO1-3" value="&lt;b&gt;&lt;font style=&quot;font-size: 14px&quot;&gt;Target User&lt;/font&gt;&lt;/b&gt;" style="rounded=0;whiteSpace=wrap;html=1;" vertex="1" parent="1">
          <mxGeometry x="590" y="233" width="120" height="60" as="geometry" />
        </mxCell>
        <mxCell id="ZHkih56UFuQLgqINmOO1-4" value="" style="endArrow=classic;html=1;rounded=0;" edge="1" parent="1">
          <mxGeometry width="50" height="50" relative="1" as="geometry">
            <mxPoint x="249" y="255" as="sourcePoint" />
            <mxPoint x="355" y="255" as="targetPoint" />
          </mxGeometry>
        </mxCell>
        <mxCell id="ZHkih56UFuQLgqINmOO1-7" value="" style="endArrow=classic;html=1;rounded=0;entryX=1;entryY=0.75;entryDx=0;entryDy=0;" edge="1" parent="1">
          <mxGeometry width="50" height="50" relative="1" as="geometry">
            <mxPoint x="359" y="285" as="sourcePoint" />
            <mxPoint x="244" y="285" as="targetPoint" />
          </mxGeometry>
        </mxCell>
        <mxCell id="ZHkih56UFuQLgqINmOO1-8" value="" style="endArrow=classic;html=1;rounded=0;exitX=1;exitY=0.25;exitDx=0;exitDy=0;" edge="1" parent="1">
          <mxGeometry width="50" height="50" relative="1" as="geometry">
            <mxPoint x="489" y="250" as="sourcePoint" />
            <mxPoint x="590" y="250" as="targetPoint" />
          </mxGeometry>
        </mxCell>
        <mxCell id="ZHkih56UFuQLgqINmOO1-9" value="" style="endArrow=classic;html=1;rounded=0;entryX=1;entryY=0.75;entryDx=0;entryDy=0;" edge="1" parent="1">
          <mxGeometry width="50" height="50" relative="1" as="geometry">
            <mxPoint x="590" y="280" as="sourcePoint" />
            <mxPoint x="489" y="280" as="targetPoint" />
          </mxGeometry>
        </mxCell>
      </root>
    </mxGraphModel>
  </diagram>
</mxfile>
